<mxfile host="Electron" modified="2024-05-04T09:45:36.212Z" agent="Mozilla/5.0 (Windows NT 10.0; Win64; x64) AppleWebKit/537.36 (KHTML, like Gecko) draw.io/24.2.5 Chrome/120.0.6099.109 Electron/28.1.0 Safari/537.36" etag="DoSMqvnXE5TqjdX8GruH" version="24.2.5" type="device">
  <diagram name="Page-1" id="qwir8DPFvTr1vE_cQOqv">
    <mxGraphModel dx="1073" dy="1362" grid="1" gridSize="10" guides="1" tooltips="1" connect="1" arrows="1" fold="1" page="0" pageScale="1" pageWidth="827" pageHeight="1169" math="0" shadow="0">
      <root>
        <mxCell id="0" />
        <mxCell id="1" parent="0" />
        <mxCell id="RaVVAfARfo4zaZwnmAZx-4" value="" style="edgeStyle=none;curved=1;rounded=0;orthogonalLoop=1;jettySize=auto;html=1;fontSize=12;startSize=8;endSize=8;" edge="1" parent="1" source="RaVVAfARfo4zaZwnmAZx-2" target="RaVVAfARfo4zaZwnmAZx-3">
          <mxGeometry relative="1" as="geometry" />
        </mxCell>
        <mxCell id="RaVVAfARfo4zaZwnmAZx-2" value="/start" style="rounded=0;whiteSpace=wrap;html=1;" vertex="1" parent="1">
          <mxGeometry x="510" y="820" width="120" height="60" as="geometry" />
        </mxCell>
        <mxCell id="RaVVAfARfo4zaZwnmAZx-6" value="" style="edgeStyle=none;curved=1;rounded=0;orthogonalLoop=1;jettySize=auto;html=1;fontSize=12;startSize=8;endSize=8;" edge="1" parent="1" source="RaVVAfARfo4zaZwnmAZx-3" target="RaVVAfARfo4zaZwnmAZx-5">
          <mxGeometry relative="1" as="geometry" />
        </mxCell>
        <mxCell id="RaVVAfARfo4zaZwnmAZx-3" value="Приветсвие. Просим /vote" style="rounded=0;whiteSpace=wrap;html=1;" vertex="1" parent="1">
          <mxGeometry x="730" y="820" width="120" height="60" as="geometry" />
        </mxCell>
        <mxCell id="RaVVAfARfo4zaZwnmAZx-8" value="" style="edgeStyle=none;curved=1;rounded=0;orthogonalLoop=1;jettySize=auto;html=1;fontSize=12;startSize=8;endSize=8;" edge="1" parent="1" source="RaVVAfARfo4zaZwnmAZx-5" target="RaVVAfARfo4zaZwnmAZx-7">
          <mxGeometry relative="1" as="geometry" />
        </mxCell>
        <mxCell id="RaVVAfARfo4zaZwnmAZx-5" value="/vote" style="whiteSpace=wrap;html=1;rounded=0;" vertex="1" parent="1">
          <mxGeometry x="960" y="820" width="120" height="60" as="geometry" />
        </mxCell>
        <mxCell id="RaVVAfARfo4zaZwnmAZx-10" value="" style="edgeStyle=none;curved=1;rounded=0;orthogonalLoop=1;jettySize=auto;html=1;fontSize=12;startSize=8;endSize=8;" edge="1" parent="1" source="RaVVAfARfo4zaZwnmAZx-7" target="RaVVAfARfo4zaZwnmAZx-9">
          <mxGeometry relative="1" as="geometry" />
        </mxCell>
        <mxCell id="RaVVAfARfo4zaZwnmAZx-7" value="Загружаем текущий опрос; выдаем первый вопрос" style="whiteSpace=wrap;html=1;rounded=0;" vertex="1" parent="1">
          <mxGeometry x="1160" y="820" width="120" height="60" as="geometry" />
        </mxCell>
        <mxCell id="RaVVAfARfo4zaZwnmAZx-12" value="" style="edgeStyle=none;curved=1;rounded=0;orthogonalLoop=1;jettySize=auto;html=1;fontSize=12;startSize=8;endSize=8;" edge="1" parent="1" source="RaVVAfARfo4zaZwnmAZx-9" target="RaVVAfARfo4zaZwnmAZx-21">
          <mxGeometry relative="1" as="geometry">
            <mxPoint x="1580" y="850" as="targetPoint" />
          </mxGeometry>
        </mxCell>
        <mxCell id="RaVVAfARfo4zaZwnmAZx-15" value="" style="edgeStyle=none;curved=1;rounded=0;orthogonalLoop=1;jettySize=auto;html=1;fontSize=12;startSize=8;endSize=8;" edge="1" parent="1" source="RaVVAfARfo4zaZwnmAZx-9" target="RaVVAfARfo4zaZwnmAZx-14">
          <mxGeometry relative="1" as="geometry" />
        </mxCell>
        <mxCell id="RaVVAfARfo4zaZwnmAZx-9" value="Отвечает" style="whiteSpace=wrap;html=1;rounded=0;" vertex="1" parent="1">
          <mxGeometry x="1370" y="820" width="120" height="60" as="geometry" />
        </mxCell>
        <mxCell id="RaVVAfARfo4zaZwnmAZx-13" style="edgeStyle=none;curved=1;rounded=0;orthogonalLoop=1;jettySize=auto;html=1;exitX=1;exitY=0.5;exitDx=0;exitDy=0;fontSize=12;startSize=8;endSize=8;entryX=0.5;entryY=0;entryDx=0;entryDy=0;" edge="1" parent="1" source="RaVVAfARfo4zaZwnmAZx-11" target="RaVVAfARfo4zaZwnmAZx-9">
          <mxGeometry relative="1" as="geometry">
            <mxPoint x="1709.9963636363636" y="820" as="targetPoint" />
            <Array as="points">
              <mxPoint x="1980" y="600" />
            </Array>
          </mxGeometry>
        </mxCell>
        <mxCell id="RaVVAfARfo4zaZwnmAZx-11" value="Выдаем следующий вопрос" style="whiteSpace=wrap;html=1;rounded=0;" vertex="1" parent="1">
          <mxGeometry x="1770.0000000000002" y="820" width="120" height="60" as="geometry" />
        </mxCell>
        <mxCell id="RaVVAfARfo4zaZwnmAZx-14" value="Вопросы кончились.&lt;div&gt;Благодарим&lt;/div&gt;" style="whiteSpace=wrap;html=1;rounded=0;" vertex="1" parent="1">
          <mxGeometry x="1370" y="970" width="120" height="60" as="geometry" />
        </mxCell>
        <mxCell id="RaVVAfARfo4zaZwnmAZx-19" value="" style="edgeStyle=none;curved=1;rounded=0;orthogonalLoop=1;jettySize=auto;html=1;fontSize=12;startSize=8;endSize=8;" edge="1" parent="1" source="RaVVAfARfo4zaZwnmAZx-17" target="RaVVAfARfo4zaZwnmAZx-18">
          <mxGeometry relative="1" as="geometry" />
        </mxCell>
        <mxCell id="RaVVAfARfo4zaZwnmAZx-17" value="Событие: загружен новый опрос" style="rounded=0;whiteSpace=wrap;html=1;" vertex="1" parent="1">
          <mxGeometry x="510" y="1020" width="120" height="60" as="geometry" />
        </mxCell>
        <mxCell id="RaVVAfARfo4zaZwnmAZx-20" style="edgeStyle=none;curved=1;rounded=0;orthogonalLoop=1;jettySize=auto;html=1;exitX=1;exitY=0.5;exitDx=0;exitDy=0;entryX=0.5;entryY=1;entryDx=0;entryDy=0;fontSize=12;startSize=8;endSize=8;" edge="1" parent="1" source="RaVVAfARfo4zaZwnmAZx-18" target="RaVVAfARfo4zaZwnmAZx-5">
          <mxGeometry relative="1" as="geometry" />
        </mxCell>
        <mxCell id="RaVVAfARfo4zaZwnmAZx-18" value="Отправляем уведомление пользователям" style="whiteSpace=wrap;html=1;rounded=0;" vertex="1" parent="1">
          <mxGeometry x="730" y="1020" width="120" height="60" as="geometry" />
        </mxCell>
        <mxCell id="RaVVAfARfo4zaZwnmAZx-22" style="edgeStyle=none;curved=1;rounded=0;orthogonalLoop=1;jettySize=auto;html=1;exitX=1;exitY=0.5;exitDx=0;exitDy=0;entryX=0;entryY=0.5;entryDx=0;entryDy=0;fontSize=12;startSize=8;endSize=8;" edge="1" parent="1" source="RaVVAfARfo4zaZwnmAZx-21" target="RaVVAfARfo4zaZwnmAZx-11">
          <mxGeometry relative="1" as="geometry" />
        </mxCell>
        <mxCell id="RaVVAfARfo4zaZwnmAZx-21" value="Записываем ответ в базу" style="rounded=0;whiteSpace=wrap;html=1;" vertex="1" parent="1">
          <mxGeometry x="1569.9999999999998" y="820" width="120" height="60" as="geometry" />
        </mxCell>
      </root>
    </mxGraphModel>
  </diagram>
</mxfile>
